#!OML:ASF H:\Dans Jumps\Project 1\Capture day 1\Session 1\subject.ASF
:FULLY-SPECIFIED
:DEGREES
384
root 0.459022 16.7026 -1.2604 -1.58089 3.31527 -0.547653
lowerback 6.16767 -0.246731 -1.15245
upperback 3.73662 -0.376074 2.44833
thorax 0.416595 -0.230514 3.19018
lowerneck -9.09311 -0.843392 -1.93438
upperneck 29.4868 -1.06081 0.930035
head 11.0129 -0.573367 0.549332
rclavicle -6.95746e-016 -1.27222e-014
rhumerus -30.0984 -40.4798 -66.6541
rradius 14.7165
rwrist 60.0503
rhand -22.2904 -30.8192
rfingers 7.12502
rthumb 4.12836 -60.7589
lclavicle -6.95746e-016 -1.27222e-014
lhumerus -22.9891 7.01606 87.8341
lradius 0.077284
lwrist -0.0992496
lhand -29.2051 -6.6318
lfingers 7.12502
lthumb -2.54976 23.3327
rfemur -29.4713 -2.95813 18.414
rtibia 45.2507
rfoot -11.0035 2.29769
rtoes 3.9779
lfemur -29.5439 9.276 -18.9257
ltibia 40.7387
lfoot -8.15303 -3.29736
ltoes -8.57214
385
root 0.452945 16.4548 -1.16268 -1.72157 3.30152 -0.727218
lowerback 6.33552 -0.147723 -0.947282
upperback 3.52265 -0.229939 2.48201
thorax 0.0922951 -0.148893 3.10226
lowerneck -9.41759 -0.927102 -1.96329
upperneck 29.4159 -1.17096 0.947007
head 11.0532 -0.622965 0.546047
rclavicle -3.57812e-015 3.97569e-015
rhumerus -29.5295 -41.6609 -66.5333
rradius 14.6651
rwrist 61.3919
rhand -22.4278 -31.1876
rfingers 7.12502
rthumb 3.99571 -61.1298
lclavicle -3.57812e-015 3.97569e-015
lhumerus -22.4869 6.73023 87.9024
lradius -0.100256
lwrist 0.615331
lhand -30.2846 -7.00035
lfingers 7.12502
lthumb -3.59228 22.9491
rfemur -31.0198 -2.9856 18.7156
rtibia 49.0207
rfoot -13.9708 1.30323
rtoes 4.07668
lfemur -31.3921 9.10506 -18.7186
ltibia 44.9914
lfoot -10.7828 -1.55357
ltoes -8.01966
386
root 0.445922 16.2225 -1.07692 -1.82089 3.17035 -0.872953
lowerback 6.54772 -0.0296138 -0.809544
upperback 3.40023 -0.0620907 2.51696
thorax -0.162149 -0.0596625 3.05132
lowerneck -9.77639 -0.988526 -1.96262
upperneck 29.2466 -1.24417 0.927808
head 11.0616 -0.656798 0.52828
rclavicle 4.27387e-015 7.95139e-015
rhumerus -28.4416 -42.3838 -67.0195
rradius 14.7603
rwrist 62.1718
rhand -22.5894 -31.6042
rfingers 7.12502
rthumb 3.83964 -61.5493
lclavicle 4.27387e-015 7.95139e-015
lhumerus -21.838 6.54046 87.9775
lradius -0.157677
lwrist 1.39889
lhand -31.3673 -7.5164
lfingers 7.12502
lthumb -4.6378 22.4128
rfemur -32.8012 -2.87273 18.9817
rtibia 52.8313
rfoot -16.1095 0.46077
rtoes 4.16016
lfemur -33.3757 8.89133 -18.4837
ltibia 49.2203
lfoot -12.5711 0.00371843
ltoes -7.63191
387
root 0.438648 16.0065 -0.995954 -2.02938 2.93744 -0.977622
lowerback 6.88111 0.100932 -0.743954
upperback 3.39648 0.117579 2.54962
thorax -0.361327 0.0327066 3.03691
lowerneck -10.1065 -1.02842 -1.97024
upperneck 28.9933 -1.28838 0.919343
head 11.0319 -0.677315 0.519174
rclavicle -2.78299e-015 8.74653e-015
rhumerus -26.8485 -42.2329 -68.2204
rradius 15.0477
rwrist 62.0225
rhand -22.7734 -31.9484
rfingers 7.12502
rthumb 3.66197 -61.8967
lclavicle -2.78299e-015 8.74653e-015
lhumerus -21.2111 6.44932 88.0541
lradius 0.0991051
lwrist 2.21636
lhand -32.3638 -8.18844
lfingers 7.12502
lthumb -5.59996 21.7176
rfemur -34.3917 -2.69972 19.1964
rtibia 56.3984
rfoot -17.7314 -0.180176
rtoes 3.99425
lfemur -35.0977 8.73637 -18.2277
ltibia 53.1188
lfoot -13.9195 1.34531
ltoes -7.51887
388
root 0.432376 15.8159 -0.915722 -2.48146 2.66164 -1.05753
lowerback 7.41577 0.223967 -0.725162
upperback 3.51817 0.283902 2.58839
thorax -0.541347 0.116441 3.05483
lowerneck -10.3546 -1.04804 -1.99177
upperneck 28.6984 -1.30643 0.925483
head 10.9699 -0.686066 0.521209
rclavicle -3.27995e-015 -1.98785e-014
rhumerus -24.8956 -40.8937 -70.0462
rradius 15.5497
rwrist 60.6947
rhand -22.9653 -32.1441
rfingers 7.12502
rthumb 3.47665 -62.0955
lclavicle -3.27995e-015 -1.98785e-014
lhumerus -20.7322 6.45618 88.1406
lradius 0.770502
lwrist 2.97614
lhand -33.1134 -8.88935
lfingers 7.12502
lthumb -6.32367 20.9963
rfemur -35.4085 -2.54571 19.362
rtibia 59.46
rfoot -19.0897 -0.673485
rtoes 3.22626
lfemur -36.1803 8.6632 -17.9378
ltibia 56.4317
lfoot -15.1399 2.45727
ltoes -7.85935
389
root 0.427748 15.6596 -0.833549 -3.16122 2.39079 -1.11504
lowerback 8.0963 0.331208 -0.732488
upperback 3.73054 0.426869 2.62775
thorax -0.706351 0.18721 3.0881
lowerneck -10.5107 -1.0576 -2.02561
upperneck 28.4421 -1.3154 0.95187
head 10.9045 -0.689951 0.534278
rclavicle 1.19271e-015 -1.03368e-014
rhumerus -22.8686 -38.3627 -72.1958
rradius 16.2538
rwrist 58.2682
rhand -23.1482 -32.1983
rfingers 7.12502
rthumb 3.29994 -62.1525
lclavicle 1.19271e-015 -1.03368e-014
lhumerus -20.4157 6.51787 88.2235
lradius 1.74322
lwrist 3.54751
lhand -33.5201 -9.51144
lfingers 7.12502
lthumb -6.71632 20.362
rfemur -35.7301 -2.45324 19.4858
rtibia 61.8371
rfoot -20.3242 -1.09652
rtoes 2.11498
lfemur -36.5043 8.6408 -17.6351
ltibia 58.9951
lfoot -16.3139 3.47898
ltoes -8.88271
